# xmcd CD database file
#
# Track frame offsets:
#	150
#	17045
#	31647
#	49055
#	71885
#	104195
#
# Disc length: 1644 seconds
#
# Revision: 0
# Processed by: cddbd v1.5.1PL2 Copyright (c) Steve Scherf et al.
# Submitted via: CDex 1.51
#
DISCID=4e066a06
DTITLE=D.H.T. feat EDMEE - Someone
DYEAR=2005
DGENRE=Trance
TTITLE0=Someone - Furious F. Radio Edit
TTITLE1=Someone - Original
TTITLE2=Someone - Unplugged
TTITLE3=Someone - Furious F. Extended Mix
TTITLE4=Someone - Jan Vervloet Remix
TTITLE5=Someone - Chill Out Beatz
EXTD=YEAR: 2005
EXTT0=
EXTT1=
EXTT2=
EXTT3=
EXTT4=
EXTT5=
PLAYORDER=
